<?xml version="1.0" encoding="UTF-8"?>
<!-- Created with Inkscape (http://www.inkscape.org/) -->
<svg version="1.1" viewBox="0 0 512 512" xmlns="http://www.w3.org/2000/svg"><g><path d="m426.59 392.7c1.134 8.4361-177.2 182.21-343.44-16.72-7.8929-52.501-17.68-104.37-8.1342-162.68 7.9138-32.052 18.658-63.699 51.516-92.187 34.797-33.791 80.916-46.445 133.76-46.545 13.09-8.4609 28.033-13.833 44.738-16.268 9.9063 6.9291 11.966 13.858 14.913 20.787 152 34.099 146.77 172.94 137.83 243.57-2.4516-11.215-5.1187-21.998-9.9418-28.47-3.3335 25.892-14.116 45.399-25.758 64.169z" fill="#eed9d6"/><path d="m128.11 119.08c15.052-32.282 3.8643-87.376-63.04-80.89-63.268 21.741-48.178 87.25-7.6823 105.74-2.0005-14.399 0.60551-27.997 12.427-39.993 24.948-4.9787 43.859-0.46992 51.968 21.013z" fill="#eed9d6"/><path d="m241.89 153.06c-24.144 43.112-56.401 83.273-89.791 123.02-0.24603 41.775 8.2771 70.105 20.77 92.347l-20.131-12.782 11.823 30.676c21.127 20.653 44.046 40.818 101.93 51.446 72.979-0.87573 107.22-23.541 125.9-54.961 2.0435-5.9897 3.9614-11.979 3.1174-17.969l-20.373 14.774c8.1646-19.344 15.901-38.944 21.09-60.073-10.504-48.394-22.431-108.99-65.825-160.09-2.0674 44.84-13.752 81.866-29.398 115.67l-0.31954-51.126-41.54 49.529 1.2782-48.251c-8.5672-22.991-14.015-35.526-18.533-72.216z" fill="#fcead6"/><path d="m101 311.25c-8.2857 8.2612-11.735 26.485-10.25 40.25 1.5733 14.585 13.225 31.311 23.25 33.25-6.0916-24.249-11.519-48.593-13-73.5z" fill="#fcead6"/><ellipse cx="189.35" cy="337.57" rx="20.787" ry="13.105" fill="#e7c2b6"/><ellipse cx="362.65" cy="347.24" rx="20.787" ry="13.105" fill="#e7c2b6"/></g><g fill="none" stroke="#cc8e8b" stroke-linecap="round" stroke-linejoin="round" stroke-width="2"><path d="m171.27 333.95 7.4563 8.3601"/><path d="m184.82 333.14 7.513 9.4576"/><path d="m195.6 331.54 7.7782 11.579"/><path d="m348.6 342.15 9.0156 12.374"/><path d="m362.22 343.57 7.1595 10.341"/><path d="m373.79 345.16 4.8614 8.2201"/></g><path d="m245.01 434.52c3.324 24.967 3.3918 23.814-18.915 31.201 38.295 10.674 57.765 2.9246 86.621-3.4472l-24.042-6.0104c-0.84759-6.1265-1.6354-12.289-0.17677-19.799-14.98 2.9878-29.449 2.1376-43.487-1.9445z" fill="#cfa48e"/><g fill="#e5aaa6"><path d="m245.5 434.75c-49.362-14.716-72.19-35.328-85.75-58l17.5 74c23.562 11.541 31.099 12.967 44.25 16.125 7.9114 0.46341 20.349-5.1765 23.659-8.8105 2.4281-2.6652 3.281-13.645 0.3407-23.314z"/><path d="m354.61 420.2-66.291 17.147 0.35355 18.208 23.511 6.7175c14.2-3.3479 28.639-8.614 43.31-15.733"/><path d="m387.23 397.04-9.104 11.314 5.3033 22.627 11.579-9.8111"/><path d="m396.13 373.45c6.7411-3.5205 18.024-5.3722 25.121-19.202l-1-14.75c-3.2594 4.8085-8.2606 7.8579-10.717 13.457-3.2975 7.5181-9.5536 14.85-13.405 20.495z"/><path d="m67.75 105.25c-11.667 2.8217-22.891 11.128-34.558 18.796 3.7188 10.72 13.665 15.545 25.308 20.204-3.7129-16.534 1.2416-28.561 9.25-39z"/><path d="m257.75 126.25c-2.0337 24.099-1.2872 53.759-8 68.5l12 33z"/><path d="m330.93 135.76c8.5487 26.689 21.258 49.217 32.173 73.539l-32.527-48.083"/><path d="m170.41 194.81c-2.7555 19.681-10.59 39.362-7.4246 59.043 4.9306-0.0958 9.1475-3.7598 13.435-7.0711l-24.749 30.759c0.12822-36.972 9.5169-59.724 18.738-82.731z"/></g><g fill="none" stroke="#41270b" stroke-linecap="round" stroke-linejoin="round" stroke-width="4.4226"><path d="m83.08 374.5s-11.811-70.552-10.864-106.09c1.2449-46.747-0.6719-94.478 52.405-145.71 34.696-33.491 86.17-48.119 136.27-48.57"/><path d="m127.53 120.28c25.838-72.141-40.03-88.973-63.138-81.191-68.675 25.177-40.889 94.487-6.3266 105.29-3.5147-15.846 0.57892-29.72 13.331-41.349"/><path d="m121.86 125.25c-7.8777-27.9-48.592-32.923-82.998-5.0418"/><path d="m259.97 74.325c13.388-5.9249 23.88-14.387 44.381-16.482 22.606 13.726 26.861 72.56 26.21 102.58-0.43557 30.886-12.168 78.317-29.599 115.01 1.2674-16.944 1.9914-33.811-0.90379-50.161"/><path d="m310 199.74c-8.3536 30.598-27.726 53.703-51.064 74.111 2.3125-49.395 4.6946-98.781-1.8076-149.35"/><path d="m260.29 226.63c-7.3678-19.846-15.466-41.491-18.076-75.015-25.034 45.118-55.457 85.29-89.476 123.82"/><path d="m331.69 161.33c32.204 38.994 56.045 98.658 64.169 162.01"/><path d="m362.87 132.63c68.4 89.798 39.234 185.5 12.653 246.51 26.466-18.618 50.078-38.188 55.132-63.944"/><path d="m438.79 202.9c20.181 64.554 10.234 114.43-16.494 156.13"/><path d="m224.64 121.11c-61.817 43.049-97.603 160.49-51.446 248.92-19.221-11.25-34.24-28.278-46.653-48.89"/><path d="m153.7 355.65 23.326 94.584"/><path d="m149.54 131.65c-55.471 61.303-52.538 120.14-48.89 178.94 3.3131 40.966 12.633 71.12 19.811 105.13"/><path d="m420.19 338.71c1.2511 18.241 3.1189 35.865 6.0713 52.405"/><path d="m375.78 404.54 7.3494 25.563"/><path d="m354.05 420.83 1.9172 25.244"/><path d="m447.84 291.22c3.3327 9.036 6.8026 19.313 8.7873 31.195 9.5895-85.823 12.854-206.14-137.08-244.45"/></g><g stroke="#41270b" stroke-linecap="round"><path d="m188.89 274.3c-17.154 12.432-11.761 33.592 1.5816 39.541 9.3331 4.1612 27.641 3.0461 34.344-2.2595 10.919-8.642 14.543-24.9-0.90379-38.637" fill="#fff" fill-opacity=".49598" stroke-width="4.4226"/><path d="m335.31 279.72c-9.3189-0.36516-30.085 26.665-7.0044 39.541 7.1182 3.9711 22.986 7.297 31.633 2.7114 22.448-11.904 9.3828-34.218 1.8076-38.185" fill="#fff" fill-opacity=".49598" stroke-width="4.4226"/><g fill="none"><g><path d="m173.03 227.83c27.057-13.418 52.928-15.868 78.287-13.58" stroke-width="3"/><path d="m328.65 220.96c21.296 0.51886 42.13 5.0395 62.15 16.616" stroke-width="3"/><path d="m165.84 275.44 83.56-3.8345" stroke-width="8"/><path d="m315.71 276.4 69.819 11.184" stroke-width="8"/><path d="m224.96 346.38c1.6591 34.593 25.831 50.213 48.73 51.126s46.17-16.111 49.848-44.576" stroke-width="3"/><path d="m156.58 369.2c16.284 40.047 76.592 71.222 122.24 68.237s93.075-12.868 113.2-56.035c3.5065-7.2044 4.1138-11.513 3.1129-16.209" stroke-width="4.423"/></g><path d="m101.9 310.23c-12.22 8.8134-13.197 26.991-10.846 40.897 2.2427 13.264 7.1097 28.259 22.595 33.44" stroke-width="4.4226"/><g><path d="m224 258.19h23.326" stroke-width="2"/><path d="m323.05 262.02 21.569 4.6333" stroke-width="2"/><g stroke-linejoin="round" stroke-width="4"><path d="m244.7 434.05s4.0251 16.783-0.22595 23.273c-3.4361 5.2455-17.172 7.6823-17.172 7.6823"/><path d="m288.54 436.31s-1.8789 16.316 0.90379 23.725c0.71552 1.905 3.8411 4.7449 3.8411 4.7449"/><path d="m289.67 456.19 21.691 5.4228"/></g></g></g></g></svg>
